<svg width="320" height="240" viewBox="0 0 320 240" fill="none" xmlns="http://www.w3.org/2000/svg">
  <rect width="320" height="240" rx="24" fill="url(#paint0_linear_1_1)"/>
  <path d="M160 66C134.147 66 113.212 86.9348 113.212 112.788C113.212 138.641 134.147 159.576 160 159.576C185.853 159.576 206.788 138.641 206.788 112.788C206.788 86.9348 185.853 66 160 66ZM160 87.0303C173.363 87.0303 184.182 97.8495 184.182 111.212C184.182 124.575 173.363 135.394 160 135.394C146.637 135.394 135.818 124.575 135.818 111.212C135.818 97.8495 146.637 87.0303 160 87.0303Z" fill="white" opacity="0.9"/>
  <path d="M96.8485 191.758C96.8485 165.905 117.783 144.97 143.636 144.97H176.364C202.217 144.97 223.152 165.905 223.152 191.758V199.879H96.8485V191.758Z" fill="white" opacity="0.9"/>
  <defs>
    <linearGradient id="paint0_linear_1_1" x1="41" y1="16" x2="283" y2="224" gradientUnits="userSpaceOnUse">
      <stop stop-color="#9A1F40"/>
      <stop offset="1" stop-color="#D3566F"/>
    </linearGradient>
  </defs>
</svg>
