<svg width="320" height="240" viewBox="0 0 320 240" fill="none" xmlns="http://www.w3.org/2000/svg">
  <rect width="320" height="240" rx="24" fill="url(#paint0_linear_6_1)"/>
  <path d="M160 64C134.594 64 114 84.5938 114 110C114 135.406 134.594 156 160 156C185.406 156 206 135.406 206 110C206 84.5938 185.406 64 160 64ZM160 86.4C172.773 86.4 183.6 97.2272 183.6 110C183.6 122.773 172.773 133.6 160 133.6C147.227 133.6 136.4 122.773 136.4 110C136.4 97.2272 147.227 86.4 160 86.4Z" fill="white" opacity="0.9"/>
  <path d="M88 195C88 166.147 111.147 143 140 143H180C208.853 143 232 166.147 232 195V202H88V195Z" fill="white" opacity="0.9"/>
  <path d="M94 74C94 85.598 84.598 95 73 95C61.402 95 52 85.598 52 74C52 62.402 61.402 53 73 53C84.598 53 94 62.402 94 74Z" fill="white" opacity="0.65"/>
  <defs>
    <linearGradient id="paint0_linear_6_1" x1="24" y1="20" x2="296" y2="212" gradientUnits="userSpaceOnUse">
      <stop stop-color="#E15A97"/>
      <stop offset="1" stop-color="#FF9EB5"/>
    </linearGradient>
  </defs>
</svg>
